<svg width="138" height="121" viewBox="0 0 138 121" fill="none" xmlns="http://www.w3.org/2000/svg">
<path d="M115.568 25.1097C119.528 25.4947 127.81 24.2188 129.262 16.0356C130.714 7.85234 134.597 5.58655 136.357 5.47656" stroke="#F3603F" stroke-width="3" stroke-linecap="round"/>
<ellipse cx="69.0329" cy="60.1208" rx="34.5817" ry="34.5817" fill="#12941F" fill-opacity="0.94"/>
<g filter="url(#filter0_d_3539_108800)">
<path d="M69.0234 30.875C85.1706 30.8751 98.2607 43.9651 98.2607 60.1123C98.2607 76.2594 85.1705 89.3495 69.0234 89.3496C52.8763 89.3496 39.7862 76.2595 39.7861 60.1123C39.7861 43.9651 52.8762 30.875 69.0234 30.875Z" stroke="white" stroke-opacity="0.7" stroke-width="2"/>
</g>
<path d="M84.3947 52.5548C84.3947 53.4965 84.0252 54.4056 83.3534 55.055L67.7337 70.1859C67.0283 70.8353 66.0878 71.225 65.1136 71.225C64.1395 71.225 63.199 70.8353 62.5271 70.1859L54.7005 62.6205C54.0287 61.9711 53.6592 61.0619 53.6592 60.1203C53.6592 59.1787 54.0623 58.302 54.7341 57.6201C55.4395 56.9707 56.3464 56.6136 57.3206 56.5811C58.2947 56.5811 59.2017 56.9383 59.9071 57.5877L65.1136 62.6205L78.1468 50.0222C78.8522 49.3728 79.7592 49.0156 80.7333 49.0156C81.7075 49.0481 82.6144 49.4053 83.3198 50.0871C83.9916 50.7365 84.3947 51.6132 84.3947 52.5548Z" fill="white"/>
<path d="M110.047 98.0781C113.743 99.1457 120.888 103.203 119.902 110.89" stroke="#F7B23B" stroke-width="3" stroke-linecap="round" stroke-linejoin="round"/>
<path d="M1.64355 87.2393C7.31495 89.3753 19.5416 90.9073 23.0771 79.9475M23.0771 79.9475C23.5927 76.9277 23.0771 70.9543 16.8902 71.2195C15.7117 74.1288 15.2991 79.9475 23.0771 79.9475ZM23.0771 79.9475C25.655 80.4263 31.6505 79.9696 35.0092 74.313" stroke="#6E89FA" stroke-width="3" stroke-linecap="round" stroke-linejoin="round"/>
<ellipse cx="91.6438" cy="116.513" rx="3.79467" ry="3.79467" fill="#637BFE"/>
<path d="M127.518 53.125C129.337 53.1251 130.812 54.6004 130.812 56.4199C130.811 58.2393 129.337 59.7137 127.518 59.7139C125.698 59.7139 124.223 58.2394 124.223 56.4199C124.223 54.6003 125.698 53.125 127.518 53.125Z" stroke="#C05EFD"/>
<ellipse cx="67.2805" cy="4.15548" rx="4.15548" ry="4.15548" fill="#53B175"/>
<ellipse cx="79.0798" cy="11.1711" rx="2.19455" ry="2.19455" fill="#F3603F"/>
<path d="M22.0283 39.0469C23.8761 39.0469 25.3739 40.5448 25.374 42.3926C25.374 44.2405 23.8762 45.7383 22.0283 45.7383C20.1805 45.7382 18.6826 44.2404 18.6826 42.3926C18.6827 40.5448 20.1806 39.047 22.0283 39.0469Z" stroke="#F7B23B"/>
<path d="M39.542 100.305C41.6013 100.305 43.2713 101.974 43.2715 104.033C43.2715 106.093 41.6014 107.763 39.542 107.763C37.4828 107.762 35.8135 106.092 35.8135 104.033C35.8137 101.974 37.4829 100.305 39.542 100.305Z" stroke="#53B175"/>
<ellipse cx="2.0203" cy="2.0203" rx="2.0203" ry="2.0203" transform="matrix(-1 0 0 1 81.8657 110.148)" fill="#53B175"/>
<defs>
<filter id="filter0_d_3539_108800" x="34.7861" y="28.875" width="68.4741" height="68.4766" filterUnits="userSpaceOnUse" color-interpolation-filters="sRGB">
<feFlood flood-opacity="0" result="BackgroundImageFix"/>
<feColorMatrix in="SourceAlpha" type="matrix" values="0 0 0 0 0 0 0 0 0 0 0 0 0 0 0 0 0 0 127 0" result="hardAlpha"/>
<feOffset dy="3"/>
<feGaussianBlur stdDeviation="2"/>
<feColorMatrix type="matrix" values="0 0 0 0 0 0 0 0 0 0 0 0 0 0 0 0 0 0 0.12 0"/>
<feBlend mode="normal" in2="BackgroundImageFix" result="effect1_dropShadow_3539_108800"/>
<feBlend mode="normal" in="SourceGraphic" in2="effect1_dropShadow_3539_108800" result="shape"/>
</filter>
</defs>
</svg>
