<svg width="20" height="21" viewBox="0 0 20 21" fill="none" xmlns="http://www.w3.org/2000/svg">
<g clip-path="url(#clip0_3716_133920)">
<path d="M19.2451 8.76211L11.0873 8.76172C10.7271 8.76172 10.4351 9.05367 10.4351 9.41391V12.02C10.4351 12.3801 10.7271 12.6721 11.0872 12.6721H15.6812C15.1782 13.9777 14.2393 15.071 13.0414 15.7657L15.0003 19.1566C18.1425 17.3393 20.0003 14.1507 20.0003 10.5812C20.0003 10.073 19.9628 9.70969 19.8879 9.30059C19.8309 8.98977 19.5611 8.76211 19.2451 8.76211Z" fill="#167EE6"/>
<path d="M10.0001 16.5851C7.75186 16.5851 5.7892 15.3568 4.7351 13.5391L1.34424 15.4935C3.06982 18.4842 6.3024 20.4982 10.0001 20.4982C11.814 20.4982 13.5256 20.0098 15.0001 19.1586V19.154L13.0412 15.763C12.1452 16.2827 11.1083 16.5851 10.0001 16.5851Z" fill="#1ABE17"/>
<path d="M15 19.1613V19.1566L13.0411 15.7656C12.1451 16.2853 11.1083 16.5878 10 16.5878V20.5008C11.8139 20.5008 13.5256 20.0124 15 19.1613Z" fill="#08BC90"/>
<path d="M3.91305 10.4993C3.91305 9.39109 4.21547 8.35434 4.73504 7.45836L1.34418 5.50391C0.488359 6.97371 0 8.68066 0 10.4993C0 12.3179 0.488359 14.0248 1.34418 15.4946L4.73504 13.5402C4.21547 12.6442 3.91305 11.6074 3.91305 10.4993Z" fill="#FFD500"/>
<path d="M10.0001 4.41305C11.4661 4.41305 12.8128 4.93398 13.8646 5.80051C14.1241 6.01426 14.5012 5.99883 14.7389 5.76113L16.5854 3.91465C16.8551 3.64496 16.8359 3.20352 16.5478 2.95359C14.7855 1.42473 12.4925 0.5 10.0001 0.5C6.3024 0.5 3.06982 2.51395 1.34424 5.50465L4.7351 7.4591C5.7892 5.64141 7.75186 4.41305 10.0001 4.41305Z" fill="#FF4B26"/>
<path d="M13.8645 5.80051C14.124 6.01426 14.5012 5.99883 14.7389 5.76113L16.5854 3.91465C16.855 3.64496 16.8358 3.20352 16.5477 2.95359C14.7854 1.42469 12.4925 0.5 10 0.5V4.41305C11.466 4.41305 12.8127 4.93398 13.8645 5.80051Z" fill="#D93F21"/>
</g>
<defs>
<clipPath id="clip0_3716_133920">
<rect width="20" height="20" fill="white" transform="translate(0 0.5)"/>
</clipPath>
</defs>
</svg>
