<svg width="161" height="29" viewBox="0 0 161 29" fill="none" xmlns="http://www.w3.org/2000/svg">
<mask id="mask0_9704_11391" style="mask-type:alpha" maskUnits="userSpaceOnUse" x="0" y="0" width="25" height="25">
<path d="M7.02725 0.771283C7.02725 0.345315 7.37257 0 7.79853 0H16.7111C17.1371 0 17.4824 0.345315 17.4824 0.771283V23.7384C17.4824 24.1644 17.1371 24.5097 16.7111 24.5097H7.79853C7.37257 24.5097 7.02725 24.1644 7.02725 23.7384V0.771283Z" fill="white"/>
<path d="M0.771283 17.4824C0.345315 17.4824 0 17.1371 0 16.7111V7.79853C0 7.37256 0.345315 7.02725 0.771284 7.02725H23.7384C24.1644 7.02725 24.5097 7.37256 24.5097 7.79853V16.7111C24.5097 17.1371 24.1644 17.4824 23.7384 17.4824H0.771283Z" fill="white"/>
</mask>
<g mask="url(#mask0_9704_11391)">
<path d="M15.6344 1.92622C15.6344 10.6365 8.57333 17.6977 -0.137002 17.6977C-8.84733 17.6977 -15.9084 10.6365 -15.9084 1.92622C-15.9084 -6.7841 -8.84733 -13.8452 -0.137002 -13.8452C8.57333 -13.8452 15.6344 -6.7841 15.6344 1.92622Z" fill="url(#paint0_linear_9704_11391)"/>
<g filter="url(#filter0_dd_9704_11391)">
<path d="M13.6756 -1.06792C13.6756 7.6424 6.61446 14.7035 -2.09586 14.7035C-10.8062 14.7035 -17.8673 7.6424 -17.8673 -1.06792C-17.8673 -9.77824 -10.8062 -16.8394 -2.09586 -16.8394C6.61446 -16.8394 13.6756 -9.77824 13.6756 -1.06792Z" fill="url(#paint1_linear_9704_11391)"/>
</g>
<path d="M31.9637 36.446C24.5166 40.8493 14.91 38.3818 10.5067 30.9347C6.10344 23.4876 8.57095 13.881 16.018 9.4777C23.4651 5.07443 33.0717 7.54195 37.475 14.989C41.8783 22.4361 39.4108 32.0427 31.9637 36.446Z" fill="url(#paint2_linear_9704_11391)"/>
<g filter="url(#filter1_dd_9704_11391)">
<path d="M25.9785 40.9803C17.3704 40.1154 11.0933 32.436 11.9582 23.8279C12.8231 15.2197 20.5025 8.94258 29.1106 9.80749C37.7188 10.6724 43.9959 18.3518 43.131 26.9599C42.2661 35.5681 34.5867 41.8452 25.9785 40.9803Z" fill="url(#paint3_linear_9704_11391)"/>
</g>
</g>
<ellipse cx="20.2955" cy="20.2959" rx="1.66355" ry="1.66355" fill="#07BE8F"/>
<circle cx="22.8029" cy="22.6181" r="1.102" fill="#1F9CC6"/>
<ellipse cx="12.2547" cy="28.0644" rx="10.1032" ry="0.935483" fill="#479681" fill-opacity="0.14"/>
<path d="M32.4777 18.1996V6.3959H34.4257L39.7085 6.37939C41.8437 6.37939 43.5 6.88016 44.6777 7.88169C45.8553 8.88321 46.4441 10.3525 46.4441 12.2895C46.4441 14.2265 45.8553 15.6958 44.6777 16.6973C43.5 17.6989 41.8437 18.1996 39.7085 18.1996H32.4777ZM39.5269 8.52552H35.1191V16.0535H39.5269C40.9137 16.0535 41.9647 15.7508 42.6801 15.1455C43.3955 14.5402 43.7532 13.5882 43.7532 12.2895C43.7532 10.9798 43.3955 10.0278 42.6801 9.4335C41.9647 8.82818 40.9137 8.52552 39.5269 8.52552Z" fill="white"/>
<path d="M47.8521 18.1996V9.69764H54.3565C55.314 9.69764 56.0184 9.93977 56.4696 10.424C56.9209 10.8973 57.1465 11.5246 57.1465 12.306V14.0724H54.7197V12.6032C54.7197 11.9428 54.3895 11.6127 53.7292 11.6127H50.2789V18.1996H47.8521Z" fill="white"/>
<path d="M63.141 18.2822C61.6662 18.2822 60.5161 17.919 59.6906 17.1926C58.8652 16.4552 58.4525 15.3766 58.4525 13.9569C58.4525 12.5261 58.8652 11.4476 59.6906 10.7212C60.5161 9.98379 61.6662 9.6151 63.141 9.6151H67.2681C68.2366 9.6151 68.974 9.84622 69.4803 10.3085C69.9976 10.7597 70.2562 11.409 70.2562 12.2565C70.2562 13.9844 69.2602 14.8484 67.2681 14.8484H61.0278C61.259 15.8719 61.9633 16.3837 63.141 16.3837H69.827V18.2822H63.141ZM63.141 11.5136C62.0074 11.5136 61.3085 11.9924 61.0443 12.9499H67.1526C67.3727 12.9499 67.5433 12.8838 67.6643 12.7518C67.7964 12.6197 67.8624 12.4381 67.8624 12.207C67.8624 11.7447 67.6258 11.5136 67.1526 11.5136H63.141Z" fill="white"/>
<path d="M74.0063 18.1996C73.1148 18.1996 72.4324 17.974 71.9592 17.5228C71.4859 17.0715 71.2493 16.4277 71.2493 15.5912C71.2493 14.7658 71.4859 14.1275 71.9592 13.6762C72.4324 13.225 73.1148 12.9994 74.0063 12.9994H80.3456V12.6032C80.3456 11.9318 80.0154 11.5961 79.3551 11.5961H72.3554V9.69764H79.9824C80.9839 9.69764 81.6938 9.92876 82.112 10.391C82.5303 10.8422 82.7394 11.4806 82.7394 12.306V18.1996H74.0063ZM74.4355 16.3011H80.3456V14.8979H74.4355C74.2264 14.8979 74.0613 14.9639 73.9402 15.096C73.8302 15.217 73.7751 15.3821 73.7751 15.5912C73.7751 15.8004 73.8302 15.9709 73.9402 16.103C74.0613 16.2351 74.2264 16.3011 74.4355 16.3011Z" fill="white"/>
<path d="M84.5614 18.1996V9.69764H95.5727C96.5412 9.69764 97.2511 9.93977 97.7023 10.424C98.1535 10.8973 98.3792 11.5246 98.3792 12.306V18.1996H95.9854V12.6032C95.9854 11.9318 95.6442 11.5961 94.9619 11.5961H92.6672V18.1996H90.2734V11.5961H86.9551V18.1996H84.5614Z" fill="white"/>
<path d="M99.8382 18.2822V16.3837H107.928C108.39 16.3837 108.621 16.125 108.621 15.6078C108.621 15.1015 108.39 14.8484 107.928 14.8484H102.694C101.715 14.8484 100.972 14.6282 100.466 14.188C99.9593 13.7368 99.7062 13.0929 99.7062 12.2565C99.7062 11.409 99.9593 10.7597 100.466 10.3085C100.983 9.84622 101.726 9.6151 102.694 9.6151H110.222V11.5136H102.81C102.337 11.5136 102.1 11.7447 102.1 12.207C102.1 12.4381 102.166 12.6197 102.298 12.7518C102.43 12.8838 102.601 12.9499 102.81 12.9499H108.357C109.215 12.9499 109.87 13.1755 110.321 13.6267C110.784 14.0669 111.015 14.7108 111.015 15.5582C111.015 16.4167 110.784 17.088 110.321 17.5723C109.859 18.0455 109.204 18.2822 108.357 18.2822H99.8382Z" fill="white"/>
<path d="M113.813 18.4009V6.59723H126.756V8.74336H116.455V11.3517H125.799V13.4979H116.455V16.2548H126.756V18.4009H113.813Z" fill="white"/>
<path d="M128.565 18.4009V6.59723H130.777L136.241 10.4272H136.324L141.788 6.59723H144V18.4009H141.359V9.89897L137.611 12.4083V18.4009H134.97V12.4083L131.206 9.89897V18.4009H128.565Z" fill="white"/>
<path d="M146.315 18.4009V6.59723H156.203C157.425 6.59723 158.372 6.90539 159.043 7.52172C159.725 8.13804 160.067 9.07353 160.067 10.3282C160.067 11.3958 159.819 12.2322 159.324 12.8375C158.828 13.4428 158.124 13.8225 157.211 13.9766L159.934 18.4009H156.93L154.404 14.0592H148.956V18.4009H146.315ZM155.89 8.74336H148.956V11.8965L155.89 11.913C156.374 11.913 156.743 11.792 156.996 11.5498C157.26 11.3077 157.392 10.9005 157.392 10.3282C157.392 9.74489 157.26 9.33767 156.996 9.10655C156.743 8.86442 156.374 8.74336 155.89 8.74336Z" fill="white"/>
<defs>
<filter id="filter0_dd_9704_11391" x="-36.2673" y="-30.4394" width="68.3429" height="68.343" filterUnits="userSpaceOnUse" color-interpolation-filters="sRGB">
<feFlood flood-opacity="0" result="BackgroundImageFix"/>
<feColorMatrix in="SourceAlpha" type="matrix" values="0 0 0 0 0 0 0 0 0 0 0 0 0 0 0 0 0 0 127 0" result="hardAlpha"/>
<feMorphology radius="2" operator="erode" in="SourceAlpha" result="effect1_dropShadow_9704_11391"/>
<feOffset dy="4"/>
<feGaussianBlur stdDeviation="6.5"/>
<feColorMatrix type="matrix" values="0 0 0 0 0.0745098 0 0 0 0 0.0627451 0 0 0 0 0.133333 0 0 0 0.06 0"/>
<feBlend mode="normal" in2="BackgroundImageFix" result="effect1_dropShadow_9704_11391"/>
<feColorMatrix in="SourceAlpha" type="matrix" values="0 0 0 0 0 0 0 0 0 0 0 0 0 0 0 0 0 0 127 0" result="hardAlpha"/>
<feMorphology radius="6" operator="erode" in="SourceAlpha" result="effect2_dropShadow_9704_11391"/>
<feOffset dy="4.8"/>
<feGaussianBlur stdDeviation="12.2"/>
<feColorMatrix type="matrix" values="0 0 0 0 0.0745098 0 0 0 0 0.0627451 0 0 0 0 0.133333 0 0 0 0.1 0"/>
<feBlend mode="normal" in2="effect1_dropShadow_9704_11391" result="effect2_dropShadow_9704_11391"/>
<feBlend mode="normal" in="SourceGraphic" in2="effect2_dropShadow_9704_11391" result="shape"/>
</filter>
<filter id="filter1_dd_9704_11391" x="-6.52146" y="-3.87197" width="68.1321" height="68.132" filterUnits="userSpaceOnUse" color-interpolation-filters="sRGB">
<feFlood flood-opacity="0" result="BackgroundImageFix"/>
<feColorMatrix in="SourceAlpha" type="matrix" values="0 0 0 0 0 0 0 0 0 0 0 0 0 0 0 0 0 0 127 0" result="hardAlpha"/>
<feMorphology radius="2" operator="erode" in="SourceAlpha" result="effect1_dropShadow_9704_11391"/>
<feOffset dy="4"/>
<feGaussianBlur stdDeviation="6.5"/>
<feColorMatrix type="matrix" values="0 0 0 0 0.0745098 0 0 0 0 0.0627451 0 0 0 0 0.133333 0 0 0 0.06 0"/>
<feBlend mode="normal" in2="BackgroundImageFix" result="effect1_dropShadow_9704_11391"/>
<feColorMatrix in="SourceAlpha" type="matrix" values="0 0 0 0 0 0 0 0 0 0 0 0 0 0 0 0 0 0 127 0" result="hardAlpha"/>
<feMorphology radius="6" operator="erode" in="SourceAlpha" result="effect2_dropShadow_9704_11391"/>
<feOffset dy="4.8"/>
<feGaussianBlur stdDeviation="12.2"/>
<feColorMatrix type="matrix" values="0 0 0 0 0.0745098 0 0 0 0 0.0627451 0 0 0 0 0.133333 0 0 0 0.1 0"/>
<feBlend mode="normal" in2="effect1_dropShadow_9704_11391" result="effect2_dropShadow_9704_11391"/>
<feBlend mode="normal" in="SourceGraphic" in2="effect2_dropShadow_9704_11391" result="shape"/>
</filter>
<linearGradient id="paint0_linear_9704_11391" x1="10.8302" y1="27.1259" x2="-18.6217" y2="26.5583" gradientUnits="userSpaceOnUse">
<stop stop-color="#07BE8F"/>
<stop offset="1" stop-color="#5435DB"/>
</linearGradient>
<linearGradient id="paint1_linear_9704_11391" x1="8.87133" y1="24.1318" x2="-20.5805" y2="23.5642" gradientUnits="userSpaceOnUse">
<stop stop-color="#07BE8F"/>
<stop offset="1" stop-color="#5435DB"/>
</linearGradient>
<linearGradient id="paint2_linear_9704_11391" x1="7.98993" y1="45.0775" x2="-6.41336" y2="19.6101" gradientUnits="userSpaceOnUse">
<stop stop-color="#07BE8F"/>
<stop offset="1" stop-color="#5435DB"/>
</linearGradient>
<linearGradient id="paint3_linear_9704_11391" x1="1.55151" y1="33.7302" x2="5.03691" y2="4.68022" gradientUnits="userSpaceOnUse">
<stop stop-color="#07BE8F"/>
<stop offset="1" stop-color="#5435DB"/>
</linearGradient>
</defs>
</svg>
