<svg width="161" height="29" viewBox="0 0 161 29" fill="none" xmlns="http://www.w3.org/2000/svg">
<mask id="mask0_3605_101326" style="mask-type:alpha" maskUnits="userSpaceOnUse" x="0" y="0" width="25" height="25">
<path d="M7.02725 0.771283C7.02725 0.345315 7.37257 0 7.79853 0H16.7111C17.1371 0 17.4824 0.345315 17.4824 0.771283V23.7384C17.4824 24.1644 17.1371 24.5097 16.7111 24.5097H7.79853C7.37257 24.5097 7.02725 24.1644 7.02725 23.7384V0.771283Z" fill="white"/>
<path d="M0.771283 17.4824C0.345315 17.4824 0 17.1371 0 16.7111V7.79853C0 7.37256 0.345315 7.02725 0.771284 7.02725H23.7384C24.1644 7.02725 24.5097 7.37256 24.5097 7.79853V16.7111C24.5097 17.1371 24.1644 17.4824 23.7384 17.4824H0.771283Z" fill="white"/>
</mask>
<g mask="url(#mask0_3605_101326)">
<path d="M15.6347 1.92622C15.6347 10.6365 8.57357 17.6977 -0.136758 17.6977C-8.84709 17.6977 -15.9082 10.6365 -15.9082 1.92622C-15.9082 -6.7841 -8.84709 -13.8452 -0.136758 -13.8452C8.57357 -13.8452 15.6347 -6.7841 15.6347 1.92622Z" fill="url(#paint0_linear_3605_101326)"/>
<g filter="url(#filter0_dd_3605_101326)">
<path d="M13.6757 -1.06816C13.6757 7.64216 6.61459 14.7033 -2.09574 14.7033C-10.8061 14.7033 -17.8672 7.64216 -17.8672 -1.06816C-17.8672 -9.77849 -10.8061 -16.8396 -2.09574 -16.8396C6.61459 -16.8396 13.6757 -9.77849 13.6757 -1.06816Z" fill="url(#paint1_linear_3605_101326)"/>
</g>
<path d="M31.9634 36.4458C24.5163 40.849 14.9097 38.3815 10.5065 30.9344C6.10319 23.4873 8.5707 13.8807 16.0178 9.47746C23.4649 5.07419 33.0715 7.5417 37.4748 14.9888C41.878 22.4359 39.4105 32.0425 31.9634 36.4458Z" fill="url(#paint2_linear_3605_101326)"/>
<g filter="url(#filter1_dd_3605_101326)">
<path d="M25.9788 40.9806C17.3706 40.1156 11.0935 32.4362 11.9584 23.8281C12.8233 15.22 20.5027 8.94283 29.1109 9.80773C37.719 10.6726 43.9961 18.3521 43.1312 26.9602C42.2663 35.5683 34.5869 41.8455 25.9788 40.9806Z" fill="url(#paint3_linear_3605_101326)"/>
</g>
</g>
<ellipse cx="20.2964" cy="20.2956" rx="1.66355" ry="1.66355" fill="#07BE8F"/>
<circle cx="22.8032" cy="22.6181" r="1.102" fill="#1F9CC6"/>
<ellipse cx="12.2556" cy="28.0646" rx="10.1032" ry="0.935483" fill="#479681" fill-opacity="0.14"/>
<path d="M32.4785 18.1996V6.3959H34.4265L39.7093 6.37939C41.8445 6.37939 43.5008 6.88016 44.6784 7.88169C45.8561 8.88321 46.4449 10.3525 46.4449 12.2895C46.4449 14.2265 45.8561 15.6958 44.6784 16.6973C43.5008 17.6989 41.8445 18.1996 39.7093 18.1996H32.4785ZM39.5277 8.52552H35.1199V16.0535H39.5277C40.9145 16.0535 41.9655 15.7508 42.6809 15.1455C43.3963 14.5402 43.754 13.5882 43.754 12.2895C43.754 10.9798 43.3963 10.0278 42.6809 9.4335C41.9655 8.82818 40.9145 8.52552 39.5277 8.52552Z" fill="white"/>
<path d="M47.8529 18.1996V9.69764H54.3573C55.3148 9.69764 56.0192 9.93977 56.4704 10.424C56.9217 10.8973 57.1473 11.5246 57.1473 12.306V14.0724H54.7205V12.6032C54.7205 11.9428 54.3903 11.6127 53.73 11.6127H50.2797V18.1996H47.8529Z" fill="white"/>
<path d="M63.1417 18.2822C61.667 18.2822 60.5169 17.919 59.6914 17.1926C58.866 16.4552 58.4533 15.3766 58.4533 13.9569C58.4533 12.5261 58.866 11.4476 59.6914 10.7212C60.5169 9.98379 61.667 9.6151 63.1417 9.6151H67.2689C68.2374 9.6151 68.9748 9.84622 69.4811 10.3085C69.9984 10.7597 70.257 11.409 70.257 12.2565C70.257 13.9844 69.261 14.8484 67.2689 14.8484H61.0286C61.2598 15.8719 61.9641 16.3837 63.1417 16.3837H69.8278V18.2822H63.1417ZM63.1417 11.5136C62.0082 11.5136 61.3093 11.9924 61.0451 12.9499H67.1534C67.3735 12.9499 67.5441 12.8838 67.6651 12.7518C67.7972 12.6197 67.8632 12.4381 67.8632 12.207C67.8632 11.7447 67.6266 11.5136 67.1534 11.5136H63.1417Z" fill="white"/>
<path d="M74.007 18.1996C73.1156 18.1996 72.4332 17.974 71.96 17.5228C71.4867 17.0715 71.2501 16.4277 71.2501 15.5912C71.2501 14.7658 71.4867 14.1275 71.96 13.6762C72.4332 13.225 73.1156 12.9994 74.007 12.9994H80.3464V12.6032C80.3464 11.9318 80.0162 11.5961 79.3559 11.5961H72.3562V9.69764H79.9832C80.9847 9.69764 81.6946 9.92876 82.1128 10.391C82.531 10.8422 82.7402 11.4806 82.7402 12.306V18.1996H74.007ZM74.4363 16.3011H80.3464V14.8979H74.4363C74.2272 14.8979 74.0621 14.9639 73.941 15.096C73.831 15.217 73.7759 15.3821 73.7759 15.5912C73.7759 15.8004 73.831 15.9709 73.941 16.103C74.0621 16.2351 74.2272 16.3011 74.4363 16.3011Z" fill="white"/>
<path d="M84.5622 18.1996V9.69764H95.5735C96.542 9.69764 97.2519 9.93977 97.7031 10.424C98.1543 10.8973 98.38 11.5246 98.38 12.306V18.1996H95.9862V12.6032C95.9862 11.9318 95.645 11.5961 94.9627 11.5961H92.6679V18.1996H90.2742V11.5961H86.9559V18.1996H84.5622Z" fill="white"/>
<path d="M99.839 18.2822V16.3837H107.928C108.391 16.3837 108.622 16.125 108.622 15.6078C108.622 15.1015 108.391 14.8484 107.928 14.8484H102.695C101.716 14.8484 100.973 14.6282 100.466 14.188C99.9601 13.7368 99.707 13.0929 99.707 12.2565C99.707 11.409 99.9601 10.7597 100.466 10.3085C100.984 9.84622 101.727 9.6151 102.695 9.6151H110.223V11.5136H102.811C102.337 11.5136 102.101 11.7447 102.101 12.207C102.101 12.4381 102.167 12.6197 102.299 12.7518C102.431 12.8838 102.601 12.9499 102.811 12.9499H108.358C109.216 12.9499 109.871 13.1755 110.322 13.6267C110.784 14.0669 111.015 14.7108 111.015 15.5582C111.015 16.4167 110.784 17.088 110.322 17.5723C109.86 18.0455 109.205 18.2822 108.358 18.2822H99.839Z" fill="white"/>
<path d="M113.814 18.4009V6.59723H126.757V8.74336H116.455V11.3517H125.799V13.4979H116.455V16.2548H126.757V18.4009H113.814Z" fill="white"/>
<path d="M128.565 18.4009V6.59723H130.778L136.242 10.4272H136.325L141.789 6.59723H144.001V18.4009H141.36V9.89897L137.612 12.4083V18.4009H134.971V12.4083L131.207 9.89897V18.4009H128.565Z" fill="white"/>
<path d="M146.316 18.4009V6.59723H156.204C157.426 6.59723 158.372 6.90539 159.044 7.52172C159.726 8.13804 160.067 9.07353 160.067 10.3282C160.067 11.3958 159.82 12.2322 159.324 12.8375C158.829 13.4428 158.125 13.8225 157.211 13.9766L159.935 18.4009H156.931L154.405 14.0592H148.957V18.4009H146.316ZM155.891 8.74336H148.957V11.8965L155.891 11.913C156.375 11.913 156.744 11.792 156.997 11.5498C157.261 11.3077 157.393 10.9005 157.393 10.3282C157.393 9.74489 157.261 9.33767 156.997 9.10655C156.744 8.86442 156.375 8.74336 155.891 8.74336Z" fill="white"/>
<defs>
<filter id="filter0_dd_3605_101326" x="-36.2672" y="-30.4396" width="68.343" height="68.343" filterUnits="userSpaceOnUse" color-interpolation-filters="sRGB">
<feFlood flood-opacity="0" result="BackgroundImageFix"/>
<feColorMatrix in="SourceAlpha" type="matrix" values="0 0 0 0 0 0 0 0 0 0 0 0 0 0 0 0 0 0 127 0" result="hardAlpha"/>
<feMorphology radius="2" operator="erode" in="SourceAlpha" result="effect1_dropShadow_3605_101326"/>
<feOffset dy="4"/>
<feGaussianBlur stdDeviation="6.5"/>
<feColorMatrix type="matrix" values="0 0 0 0 0.0745098 0 0 0 0 0.0627451 0 0 0 0 0.133333 0 0 0 0.06 0"/>
<feBlend mode="normal" in2="BackgroundImageFix" result="effect1_dropShadow_3605_101326"/>
<feColorMatrix in="SourceAlpha" type="matrix" values="0 0 0 0 0 0 0 0 0 0 0 0 0 0 0 0 0 0 127 0" result="hardAlpha"/>
<feMorphology radius="6" operator="erode" in="SourceAlpha" result="effect2_dropShadow_3605_101326"/>
<feOffset dy="4.8"/>
<feGaussianBlur stdDeviation="12.2"/>
<feColorMatrix type="matrix" values="0 0 0 0 0.0745098 0 0 0 0 0.0627451 0 0 0 0 0.133333 0 0 0 0.1 0"/>
<feBlend mode="normal" in2="effect1_dropShadow_3605_101326" result="effect2_dropShadow_3605_101326"/>
<feBlend mode="normal" in="SourceGraphic" in2="effect2_dropShadow_3605_101326" result="shape"/>
</filter>
<filter id="filter1_dd_3605_101326" x="-6.52109" y="-3.87197" width="68.132" height="68.1323" filterUnits="userSpaceOnUse" color-interpolation-filters="sRGB">
<feFlood flood-opacity="0" result="BackgroundImageFix"/>
<feColorMatrix in="SourceAlpha" type="matrix" values="0 0 0 0 0 0 0 0 0 0 0 0 0 0 0 0 0 0 127 0" result="hardAlpha"/>
<feMorphology radius="2" operator="erode" in="SourceAlpha" result="effect1_dropShadow_3605_101326"/>
<feOffset dy="4"/>
<feGaussianBlur stdDeviation="6.5"/>
<feColorMatrix type="matrix" values="0 0 0 0 0.0745098 0 0 0 0 0.0627451 0 0 0 0 0.133333 0 0 0 0.06 0"/>
<feBlend mode="normal" in2="BackgroundImageFix" result="effect1_dropShadow_3605_101326"/>
<feColorMatrix in="SourceAlpha" type="matrix" values="0 0 0 0 0 0 0 0 0 0 0 0 0 0 0 0 0 0 127 0" result="hardAlpha"/>
<feMorphology radius="6" operator="erode" in="SourceAlpha" result="effect2_dropShadow_3605_101326"/>
<feOffset dy="4.8"/>
<feGaussianBlur stdDeviation="12.2"/>
<feColorMatrix type="matrix" values="0 0 0 0 0.0745098 0 0 0 0 0.0627451 0 0 0 0 0.133333 0 0 0 0.1 0"/>
<feBlend mode="normal" in2="effect1_dropShadow_3605_101326" result="effect2_dropShadow_3605_101326"/>
<feBlend mode="normal" in="SourceGraphic" in2="effect2_dropShadow_3605_101326" result="shape"/>
</filter>
<linearGradient id="paint0_linear_3605_101326" x1="10.8304" y1="27.1259" x2="-18.6214" y2="26.5583" gradientUnits="userSpaceOnUse">
<stop stop-color="#07BE8F"/>
<stop offset="1" stop-color="#5435DB"/>
</linearGradient>
<linearGradient id="paint1_linear_3605_101326" x1="8.87145" y1="24.1316" x2="-20.5804" y2="23.564" gradientUnits="userSpaceOnUse">
<stop stop-color="#07BE8F"/>
<stop offset="1" stop-color="#5435DB"/>
</linearGradient>
<linearGradient id="paint2_linear_3605_101326" x1="7.98969" y1="45.0773" x2="-6.41361" y2="19.6098" gradientUnits="userSpaceOnUse">
<stop stop-color="#07BE8F"/>
<stop offset="1" stop-color="#5435DB"/>
</linearGradient>
<linearGradient id="paint3_linear_3605_101326" x1="1.55175" y1="33.7304" x2="5.03715" y2="4.68046" gradientUnits="userSpaceOnUse">
<stop stop-color="#07BE8F"/>
<stop offset="1" stop-color="#5435DB"/>
</linearGradient>
</defs>
</svg>
