<svg width="20" height="21" viewBox="0 0 20 21" fill="none" xmlns="http://www.w3.org/2000/svg">
<g clip-path="url(#clip0_3716_133931)">
<path d="M9.99997 0.5C15.5231 0.5 20 4.9775 20 10.5C20 16.0232 15.5231 20.5 9.99997 20.5C4.47681 20.5 0 16.0231 0 10.5C0 4.9775 4.47688 0.5 9.99997 0.5Z" fill="#3B5998"/>
<path d="M11.2174 7.38422H12.5062V5.48047H10.9912V5.48733C9.15556 5.55235 8.77934 6.58421 8.74618 7.66797H8.7424V8.61861H7.49243V10.483H8.7424V15.4804H10.6262V10.483H12.1693L12.4674 8.61861H10.6268V8.04426C10.6268 7.67799 10.8705 7.38422 11.2174 7.38422Z" fill="white"/>
</g>
<defs>
<clipPath id="clip0_3716_133931">
<rect width="20" height="20" fill="white" transform="translate(0 0.5)"/>
</clipPath>
</defs>
</svg>
