<svg width="71" height="38" viewBox="0 0 71 38" fill="none" xmlns="http://www.w3.org/2000/svg">
<rect x="1" y="0.59375" width="69" height="36.806" rx="9.5" fill="white"/>
<rect x="1" y="0.59375" width="69" height="36.806" rx="9.5" stroke="#E5E7EB"/>
<path fill-rule="evenodd" clip-rule="evenodd" d="M35.5 24.2507C34.3084 25.279 32.7628 25.8997 31.0738 25.8997C27.3051 25.8997 24.25 22.8091 24.25 18.9967C24.25 15.1843 27.3051 12.0938 31.0738 12.0938C32.7628 12.0938 34.3084 12.7145 35.5 13.7428C36.6916 12.7145 38.2372 12.0938 39.9262 12.0938C43.6949 12.0938 46.75 15.1843 46.75 18.9967C46.75 22.8091 43.6949 25.8997 39.9262 25.8997C38.2372 25.8997 36.6916 25.279 35.5 24.2507Z" fill="#ED0006"/>
<path fill-rule="evenodd" clip-rule="evenodd" d="M35.5 24.2507C36.9672 22.9846 37.8975 21.1006 37.8975 18.9967C37.8975 16.8929 36.9672 15.0089 35.5 13.7428C36.6916 12.7145 38.2372 12.0938 39.9262 12.0938C43.6949 12.0938 46.75 15.1843 46.75 18.9967C46.75 22.8091 43.6949 25.8997 39.9262 25.8997C38.2372 25.8997 36.6916 25.279 35.5 24.2507Z" fill="#F9A000"/>
<path fill-rule="evenodd" clip-rule="evenodd" d="M35.5 24.25C36.9672 22.9839 37.8976 21.0999 37.8976 18.9961C37.8976 16.8923 36.9672 15.0083 35.5 13.7422C34.0329 15.0083 33.1025 16.8923 33.1025 18.9961C33.1025 21.0999 34.0329 22.9839 35.5 24.25Z" fill="#FF5E00"/>
</svg>
