<svg width="70" height="38" viewBox="0 0 70 38" fill="none" xmlns="http://www.w3.org/2000/svg">
<rect x="0.5" y="0.90625" width="69" height="36.1809" rx="9.5" fill="white"/>
<rect x="0.5" y="0.90625" width="69" height="36.1809" rx="9.5" stroke="#E5E7EB"/>
<path fill-rule="evenodd" clip-rule="evenodd" d="M24.6753 25.4859H21.101L18.4208 15.2606C18.2936 14.7902 18.0234 14.3744 17.6261 14.1784C16.6345 13.6859 15.5419 13.2939 14.3499 13.0962V12.7026H20.1077C20.9024 12.7026 21.4984 13.2939 21.5977 13.9807L22.9884 21.3566L26.5609 12.7026H30.0358L24.6753 25.4859ZM32.0227 25.4859H28.6471L31.4267 12.7026H34.8023L32.0227 25.4859ZM39.1696 16.2425C39.2689 15.5539 39.8649 15.1603 40.5602 15.1603C41.6529 15.0614 42.8432 15.2591 43.8365 15.7499L44.4325 12.9976C43.4392 12.6039 42.3465 12.4062 41.3549 12.4062C38.0786 12.4062 35.6946 14.1769 35.6946 16.6344C35.6946 18.504 37.3833 19.4856 38.5753 20.077C39.8649 20.6666 40.3616 21.0603 40.2622 21.6499C40.2622 22.5344 39.2689 22.9281 38.2773 22.9281C37.0853 22.9281 35.8933 22.6333 34.8024 22.1408L34.2064 24.8948C35.3984 25.3856 36.688 25.5833 37.88 25.5833C41.5536 25.6804 43.8365 23.9114 43.8365 21.2563C43.8365 17.9126 39.1696 17.7166 39.1696 16.2425ZM55.6501 25.4859L52.9699 12.7026H50.0909C49.4949 12.7026 48.8989 13.0962 48.7003 13.6859L43.7371 25.4859H47.212L47.9056 23.6181H52.1752L52.5725 25.4859H55.6501ZM50.5872 16.1431L51.5788 20.961H48.7992L50.5872 16.1431Z" fill="#172B85"/>
</svg>
